<svg width="55" height="55" viewBox="0 0 55 55" fill="none" xmlns="http://www.w3.org/2000/svg">
<path d="M0 27.5C0 35.4892 12.3123 41.9663 27.5 41.9663C42.6877 41.9663 55 35.4892 55 27.5C55 19.5108 42.6873 13.0337 27.5 13.0337C12.3127 13.0337 0 19.5108 0 27.5Z" fill="url(#paint0_radial_49_289)"/>
<path d="M27.5 40.8921C42.0943 40.8921 53.9258 34.8958 53.9258 27.5C53.9258 20.1033 42.0943 14.1079 27.5 14.1079C12.9057 14.1079 1.07422 20.1033 1.07422 27.5C1.07422 34.8958 12.9057 40.8921 27.5 40.8921Z" fill="#777BB3"/>
<path d="M14.941 29.1603C16.1412 29.1603 17.0366 28.939 17.6034 28.5028C18.1646 28.0706 18.5517 27.3225 18.755 26.2792C18.944 25.3038 18.8718 24.6232 18.5401 24.2554C18.2015 23.8798 17.4689 23.6895 16.3629 23.6895H14.4448L13.3821 29.1603H14.941ZM8.66804 35.8991C8.62403 35.899 8.58058 35.8892 8.54081 35.8704C8.50103 35.8515 8.46592 35.8241 8.43799 35.7901C8.41006 35.7561 8.39001 35.7163 8.37926 35.6737C8.36852 35.631 8.36735 35.5865 8.37585 35.5433L11.1933 21.0465C11.2066 20.9787 11.243 20.9176 11.2963 20.8737C11.3496 20.8297 11.4164 20.8056 11.4855 20.8054H17.5587C19.4674 20.8054 20.8879 21.3236 21.7812 22.3459C22.6784 23.3728 22.956 24.8097 22.605 26.6148C22.4619 27.35 22.2161 28.0328 21.8745 28.6446C21.519 29.2741 21.0653 29.8427 20.5304 30.329C19.8726 30.9443 19.1279 31.3912 18.3188 31.6537C17.523 31.9133 16.5004 32.0448 15.2809 32.0448H12.8214L12.1193 35.6576C12.106 35.7256 12.0695 35.7868 12.0161 35.8309C11.9626 35.8749 11.8955 35.899 11.8262 35.8991H8.66804Z" fill="black"/>
<path d="M14.691 23.9877H16.363C17.698 23.9877 18.1616 24.2808 18.3193 24.4557C18.5801 24.7453 18.63 25.3567 18.4615 26.2225C18.2729 27.1923 17.9231 27.8803 17.4217 28.2661C16.9087 28.6614 16.0733 28.8617 14.9411 28.8617H13.744L14.691 23.9877ZM17.5588 20.5073H11.486C11.3475 20.5073 11.2133 20.5554 11.1064 20.6434C10.9995 20.7315 10.9265 20.8539 10.8999 20.9898L8.08244 35.487C8.0658 35.5734 8.06844 35.6623 8.09016 35.7476C8.11189 35.8328 8.15216 35.9122 8.20811 35.98C8.26406 36.0479 8.3343 36.1025 8.41381 36.1401C8.49333 36.1776 8.58016 36.1972 8.66811 36.1973H11.8263C11.9648 36.1972 12.0989 36.1489 12.2057 36.0608C12.3126 35.9727 12.3855 35.8502 12.412 35.7143L13.0672 32.343H15.2806C16.5318 32.343 17.5854 32.2064 18.4117 31.9374C19.2612 31.6615 20.0428 31.1936 20.7346 30.5465C21.2917 30.0392 21.7644 29.4464 22.1349 28.7904C22.492 28.1514 22.749 27.4381 22.8976 26.6716C23.2672 24.7711 22.9668 23.2495 22.0056 22.1495C21.0534 21.0594 19.5572 20.5068 17.5588 20.5068V20.5073ZM13.02 29.4581H14.9411C16.2144 29.4584 17.1626 29.2185 17.7856 28.7384C18.4087 28.2588 18.8295 27.458 19.0481 26.336C19.2566 25.2583 19.1614 24.4981 18.7623 24.0552C18.3627 23.6123 17.5629 23.3909 16.363 23.3909H14.199L13.02 29.4581ZM17.5592 21.1028C19.3862 21.1028 20.7187 21.5823 21.5566 22.5414C22.3945 23.5005 22.6466 24.8391 22.3128 26.5573C22.1748 27.2654 21.942 27.9125 21.6146 28.4986C21.2866 29.0853 20.8582 29.6219 20.3294 30.1086C19.6992 30.6987 18.9985 31.1191 18.2274 31.3698C17.4565 31.6207 16.4744 31.746 15.281 31.7457H12.5757L11.8267 35.6H8.66854L11.4864 21.1028H17.5592Z" fill="white"/>
<path d="M29.8456 32.0448C29.8016 32.0449 29.7581 32.0352 29.7183 32.0164C29.6784 31.9976 29.6432 31.9703 29.6152 31.9363C29.5872 31.9024 29.567 31.8626 29.5562 31.8199C29.5454 31.7772 29.5442 31.7327 29.5526 31.6895L30.7987 25.2751C30.9177 24.6649 30.8885 24.2275 30.717 24.0419C30.6118 23.9289 30.2964 23.7394 29.3635 23.7394H27.1051L25.5384 31.8037C25.525 31.8717 25.4884 31.9328 25.4348 31.9767C25.3813 32.0206 25.3142 32.0445 25.245 32.0444H22.1126C22.0685 32.0444 22.0251 32.0347 21.9853 32.016C21.9454 31.9973 21.9102 31.97 21.8822 31.936C21.8542 31.9021 21.834 31.8624 21.8231 31.8198C21.8121 31.7772 21.8108 31.7327 21.8191 31.6895L24.637 17.1922C24.6503 17.1243 24.6868 17.0631 24.7403 17.0192C24.7937 16.9752 24.8608 16.9512 24.93 16.9512H28.0624C28.1064 16.9511 28.1499 16.9608 28.1897 16.9796C28.2295 16.9983 28.2647 17.0256 28.2928 17.0595C28.3208 17.0934 28.341 17.1331 28.3519 17.1757C28.3628 17.2184 28.3642 17.2629 28.3559 17.3061L27.6761 20.8055H30.1052C31.9558 20.8055 33.2105 21.1312 33.9414 21.8028C34.6861 22.4873 34.919 23.5817 34.6324 25.0568L33.3214 31.8037C33.3079 31.8716 33.2714 31.9327 33.2179 31.9765C33.1645 32.0204 33.0975 32.0444 33.0283 32.0444L29.8456 32.0448Z" fill="black"/>
<path d="M28.0629 16.6526H24.9301C24.7915 16.6526 24.6573 16.7008 24.5504 16.7889C24.4434 16.877 24.3705 16.9996 24.344 17.1356L21.5265 31.6324C21.5098 31.7187 21.5124 31.8077 21.5341 31.893C21.5557 31.9783 21.596 32.0577 21.652 32.1256C21.7079 32.1935 21.7782 32.2482 21.8577 32.2858C21.9373 32.3234 22.0242 32.343 22.1122 32.3431H25.245C25.3836 32.343 25.5178 32.2948 25.6247 32.2067C25.7316 32.1186 25.8046 31.9961 25.8311 31.8601L27.3509 24.0376H29.3627C30.2943 24.0376 30.4902 24.2366 30.4975 24.2456C30.5542 24.3058 30.6286 24.5872 30.5057 25.2184L29.2596 31.6324C29.2429 31.7188 29.2455 31.8078 29.2672 31.8931C29.2889 31.9784 29.3292 32.0579 29.3852 32.1258C29.4412 32.1937 29.5115 32.2484 29.5911 32.286C29.6707 32.3235 29.7577 32.343 29.8457 32.3431H33.0288C33.1673 32.3429 33.3014 32.2947 33.4082 32.2066C33.5151 32.1185 33.588 31.996 33.6145 31.8601L34.9254 25.114C35.2327 23.5302 34.9697 22.3425 34.1434 21.5833C33.3545 20.8588 32.0336 20.5069 30.1052 20.5069H28.0384L28.649 17.3637C28.6658 17.2773 28.6633 17.1882 28.6416 17.1028C28.6199 17.0175 28.5796 16.938 28.5236 16.87C28.4676 16.802 28.3972 16.7473 28.3176 16.7097C28.2379 16.6721 28.151 16.6526 28.0629 16.6526ZM28.0629 17.2499L27.314 21.1033H30.1052C31.8615 21.1033 33.0728 21.4098 33.7391 22.0228C34.406 22.6353 34.6062 23.6278 34.3398 25.0006L33.0284 31.7462H29.8457L31.0922 25.3318C31.234 24.6022 31.1817 24.1047 30.9354 23.8391C30.689 23.5739 30.1651 23.4412 29.3636 23.4412H26.8589L25.245 31.7458H22.1117L24.9296 17.2486H28.0629V17.2499Z" fill="white"/>
<path d="M39.5897 29.1603C40.7898 29.1603 41.6857 28.939 42.2529 28.5028C42.8132 28.0706 43.2008 27.3225 43.404 26.2792C43.5931 25.3038 43.5213 24.6232 43.1892 24.2554C42.8506 23.8798 42.1179 23.6895 41.0119 23.6895H39.0942L38.0308 29.1603H39.5897ZM33.3179 35.8991C33.2739 35.8991 33.2303 35.8894 33.1904 35.8706C33.1506 35.8519 33.1153 35.8245 33.0873 35.7904C33.0593 35.7564 33.0392 35.7166 33.0284 35.6739C33.0176 35.6311 33.0164 35.5865 33.0249 35.5433L35.8424 21.0465C35.8557 20.9786 35.8922 20.9174 35.9457 20.8734C35.9991 20.8295 36.0662 20.8054 36.1354 20.8054H42.2082C44.1169 20.8054 45.5374 21.3236 46.4303 22.3459C47.3279 23.3728 47.6051 24.8097 47.254 26.6148C47.1197 27.3258 46.8733 28.011 46.524 28.6446C46.1685 29.2741 45.7147 29.8427 45.1799 30.329C44.5225 30.9443 43.777 31.3912 42.9683 31.6537C42.1725 31.9133 41.1499 32.0448 39.93 32.0448H37.4709L36.7692 35.6576C36.7559 35.7256 36.7194 35.787 36.6658 35.831C36.6123 35.8751 36.5451 35.8991 36.4757 35.8991H33.3179Z" fill="black"/>
<path d="M39.3401 23.9877H41.012C42.347 23.9877 42.8107 24.2808 42.9679 24.4557C43.23 24.7453 43.279 25.3567 43.111 26.2225C42.922 27.1923 42.5722 27.8803 42.0708 28.2661C41.5573 28.6614 40.722 28.8617 39.5902 28.8617H38.3931L39.3401 23.9877ZM42.2078 20.5073H36.135C35.9966 20.5074 35.8626 20.5556 35.7557 20.6436C35.6489 20.7316 35.576 20.854 35.5494 20.9898L32.7315 35.487C32.7148 35.5734 32.7175 35.6624 32.7392 35.7477C32.761 35.8329 32.8013 35.9123 32.8573 35.9802C32.9133 36.048 32.9836 36.1027 33.0632 36.1402C33.1427 36.1778 33.2296 36.1972 33.3176 36.1973H36.4758C36.6143 36.1972 36.7484 36.1489 36.8552 36.0608C36.9621 35.9727 37.035 35.8502 37.0615 35.7143L37.7167 32.343H39.9296C41.1804 32.343 42.2345 32.2064 43.0603 31.9374C43.9102 31.6615 44.6918 31.1936 45.3841 30.5461C45.941 30.0389 46.4136 29.4462 46.784 28.7904C47.1415 28.1514 47.3976 27.4381 47.5467 26.6716C47.9162 24.7711 47.6163 23.2495 46.6547 22.1495C45.7025 21.0594 44.2067 20.5068 42.2074 20.5068L42.2078 20.5073ZM37.669 29.4581H39.5897C40.863 29.4584 41.8115 29.2185 42.4351 28.7384C43.0582 28.2588 43.4787 27.458 43.6967 26.336C43.9061 25.2583 43.8108 24.4981 43.4109 24.0552C43.011 23.6123 42.2114 23.3909 41.012 23.3909H38.8485L37.669 29.4581ZM42.2078 21.1028C44.0348 21.1028 45.3673 21.5823 46.2052 22.5414C47.0431 23.5005 47.295 24.8391 46.961 26.5573C46.8235 27.2654 46.5909 27.9125 46.2632 28.4986C45.9355 29.0853 45.507 29.6219 44.9776 30.1086C44.3474 30.6987 43.6467 31.1191 42.8756 31.3698C42.105 31.6207 41.123 31.746 39.9296 31.7457H37.2247L36.4749 35.6H33.3167L36.1346 21.1028H42.2078Z" fill="white"/>
<defs>
<radialGradient id="paint0_radial_49_289" cx="0" cy="0" r="1" gradientUnits="userSpaceOnUse" gradientTransform="translate(16.5112 18.1195) scale(36.1115 36.1115)">
<stop stop-color="#AEB2D5"/>
<stop offset="0.3" stop-color="#AEB2D5"/>
<stop offset="0.75" stop-color="#484C89"/>
<stop offset="1" stop-color="#484C89"/>
</radialGradient>
</defs>
</svg>
