<svg width="42" height="42" viewBox="0 0 42 42" fill="none" xmlns="http://www.w3.org/2000/svg">
<path d="M6.17336 37.4466L2.87439 0.443604H39.1256L35.8234 37.441L20.978 41.5567L6.17336 37.4466Z" fill="#1572B6"/>
<path d="M21.0004 38.411L32.9963 35.0852L35.8185 3.46899H21.0004V38.411Z" fill="#33A9DC"/>
<path d="M21.0004 16.8751H27.0057L27.4205 12.2279H21.0004V7.68958H32.3804L32.2715 8.90725L31.1558 21.4134H21.0004V16.8751Z" fill="white"/>
<path d="M21.0272 28.6614L21.0072 28.6673L15.9531 27.3027L15.6299 23.6831H11.0748L11.7104 30.809L21.0065 33.389L21.0272 33.3831V28.6614Z" fill="#EBEBEB"/>
<path d="M26.6198 21.2214L26.0731 27.299L21.0115 28.6653V33.387L30.3151 30.8086L30.3834 30.0418L31.1728 21.2214H26.6198Z" fill="white"/>
<path d="M21.0158 7.68958V12.2279H10.0538L9.96291 11.2081L9.75619 8.90725L9.64758 7.68958H21.0158ZM21.0004 16.8758V21.4141H16.0099L15.919 20.3942L15.712 18.0934L15.6037 16.8758H21.0004Z" fill="#EBEBEB"/>
</svg>
