<svg width="42" height="42" viewBox="0 0 42 42" fill="none" xmlns="http://www.w3.org/2000/svg">
<path d="M6.24651 37.3656L2.96362 0.545044H39.0364L35.7499 37.36L20.978 41.455L6.24651 37.3656Z" fill="#E44D26"/>
<path d="M21 38.325L32.9365 35.0155L35.745 3.55554H21V38.325Z" fill="#F16529"/>
<path d="M20.9999 17.2118H15.0241L14.6114 12.5872H20.9999V8.07153H9.67603L9.78431 9.28297L10.894 21.7278H20.9999V17.2118ZM20.9999 28.94L20.9799 28.9455L15.9508 27.5871L15.6295 23.9859H11.0958L11.7284 31.0764L20.9793 33.6443L20.9999 33.6387V28.94Z" fill="#EBEBEB"/>
<path d="M20.9843 17.2118V21.7278H26.545L26.021 27.5845L20.9843 28.9439V33.6423L30.2423 31.0764L30.3102 30.3135L31.3714 18.4245L31.4813 17.2118H30.2646H20.9843ZM20.9843 8.07153V12.5872H31.8924L31.983 11.5726L32.1891 9.28297L32.297 8.07153H20.9843Z" fill="white"/>
</svg>
