<svg width="45" height="45" viewBox="0 0 45 45" fill="none" xmlns="http://www.w3.org/2000/svg">
<path d="M20.8794 0.0534684C20.7092 0.0713981 20.178 0.134328 19.7094 0.189523C17.8201 0.405031 15.6776 0.972453 13.7975 1.76452C6.99299 4.60761 1.87178 10.8454 0.458848 18C0.12627 19.7016 0.0454102 20.5376 0.0454102 22.5C0.0454102 25.0295 0.296777 26.775 0.962988 28.9807C3.14092 36.1983 8.81092 41.8592 16.0471 44.0455C18.2251 44.7033 19.9801 44.9547 22.5001 44.9547C25.0296 44.9547 26.7751 44.7033 28.9808 44.0371C36.1983 41.8592 41.8592 36.1892 44.0456 28.953C44.7033 26.775 44.9547 25.02 44.9547 22.5C44.9547 21.4288 44.9013 20.2054 44.838 19.7547C44.1088 14.553 41.9664 10.1788 38.3946 6.60554C34.8294 3.05968 30.4735 0.909172 25.3794 0.180031C24.6776 0.0808903 21.4285 -0.0098128 20.8794 0.0534684ZM13.5447 14.2285C14.0228 14.3726 14.2464 14.5076 14.5706 14.8314C15.2009 15.4712 15.3451 15.8217 15.3451 16.7843C15.3451 17.5054 15.3176 17.64 15.1021 18.0176C14.6873 18.7193 13.7247 19.3676 13.0588 19.3852C12.5902 19.395 12.6096 19.1876 13.1221 18.648C13.8059 17.9367 13.9047 17.6671 13.9047 16.6043C13.8963 15.5788 13.7701 15.2283 13.2933 14.94C12.8968 14.6971 12.4654 14.715 11.8351 15.0114C10.1968 15.7954 8.42385 18.405 7.73162 21.0787C6.81299 24.6425 8.44178 27.4947 11.1238 27.0085C11.9064 26.8643 13.3826 26.1092 14.0228 25.5143C14.553 25.0295 14.553 25.02 14.6064 24.4175C14.7246 23.1564 15.6144 21.8971 16.8037 21.3121C17.3514 21.0414 17.4875 21.0154 18.2251 21.0154C18.9268 21.0154 19.0888 21.0512 19.4309 21.2393C20.5197 21.8616 20.2947 23.31 19.1163 23.31C18.4325 23.31 18.0809 22.9585 18.5766 22.7707C19.0628 22.5907 18.8814 21.915 18.3158 21.7625C17.6495 21.5909 16.893 22.0412 16.4163 22.905C15.8397 23.9492 15.8133 25.1916 16.3614 25.7576C16.893 26.3247 17.5588 25.8757 18.0725 24.5873C18.3418 23.9309 18.7288 23.5793 19.1796 23.5793C19.5751 23.5793 19.6478 23.8226 19.4759 24.5612C19.2235 25.7038 19.3951 26.0005 20.1063 25.6504C20.3397 25.5417 20.7271 25.2907 20.9606 25.1107L21.4014 24.7592L21.6996 23.2018C22.0237 21.4562 22.1485 21.2214 22.8147 21.0966C23.4545 20.9785 23.5987 21.2942 23.3638 22.2926L23.2373 22.8516L23.7059 22.3735C24.8126 21.2393 26.1721 20.6817 26.6404 21.15C26.8918 21.4014 26.8644 21.7171 26.5047 22.8323C26.3342 23.3638 26.0994 24.2016 25.9925 24.678C25.8304 25.3976 25.8206 25.5692 25.9116 25.6862C26.1999 26.028 27.0813 25.6764 27.8642 24.9114L28.323 24.4625L28.3778 23.4626C28.4313 22.3105 28.5385 21.8971 28.8447 21.5276C29.133 21.1859 29.6551 20.9345 29.9338 21.0059C30.2126 21.0787 30.2126 21.348 29.9613 22.1404C29.6097 23.2292 29.6466 25.7397 30.0066 25.7397C30.1508 25.7397 30.888 24.9662 31.3566 24.3183L31.7068 23.8402L31.428 23.5533C30.9418 23.04 30.8251 22.7075 30.8251 21.8697C30.8251 21.2587 30.8704 21.0333 31.0226 20.7352C31.2754 20.2683 31.6709 19.9266 32.1392 19.7905C32.6335 19.638 33.2459 19.8893 33.4973 20.3397C33.7501 20.7985 33.6871 21.8243 33.3626 22.5275L33.1292 23.0397H33.4438C33.8763 23.0397 34.0468 22.9325 34.8213 22.2033C35.2263 21.8162 35.6946 21.4826 36.0447 21.3205C37.4221 20.6737 39.0428 21.0059 39.3118 21.9959C39.5368 22.7883 39.0428 23.3459 38.1776 23.2826C37.5568 23.2376 37.4401 23.0752 37.8001 22.7707C38.448 22.2293 37.8001 21.5375 36.873 21.7888C36.3689 21.9245 35.8018 22.4905 35.5054 23.1483C34.9106 24.4625 35.2263 26.01 36.0806 26.01C36.4226 26.01 37.0266 25.3347 37.2601 24.678C37.5388 23.9214 38.1238 23.445 38.5647 23.6162C38.808 23.7059 38.8259 23.9488 38.6733 24.7138C38.5018 25.5516 38.4754 26.3345 38.6101 26.6942C38.6638 26.8285 38.8259 27.0812 38.9796 27.2518C39.2664 27.5755 39.2763 27.6926 39.033 27.8462C38.9163 27.9271 38.7623 27.8916 38.3851 27.6845C37.863 27.4138 37.4126 26.9276 37.2506 26.4688L37.1518 26.1995L36.7918 26.4688C36.5844 26.613 36.2606 26.775 36.0721 26.8285C35.3251 27.0264 34.4064 26.5142 33.9754 25.6504C33.8035 25.3164 33.7501 24.3362 33.8763 23.9583C33.948 23.7509 33.948 23.7509 33.6594 23.895C33.5071 23.9762 33.183 24.0655 32.9316 24.093C32.5168 24.1387 32.4535 24.1837 32.0404 24.7054C31.4554 25.4331 30.4197 26.4154 29.9968 26.6228C29.0975 27.0718 28.8008 26.9455 28.5659 26.0181L28.4038 25.3976L28.0164 25.7397C27.5221 26.1721 26.5321 26.6942 25.9647 26.8204C25.4251 26.9371 24.8485 26.7655 24.6147 26.4055C24.2649 25.8659 24.3816 24.7233 24.9388 23.1838C25.3523 22.0412 25.0559 22.0237 24.0121 23.1125C23.2376 23.9309 22.9051 24.5159 22.6896 25.425C22.4646 26.37 22.1938 26.7118 21.5828 26.8559C21.2133 26.9371 21.0414 26.7118 21.1145 26.2175L21.168 25.8205L20.8259 26.0554C20.3397 26.388 19.7273 26.6942 19.3044 26.8109C18.8814 26.9276 18.3238 26.8025 18.1892 26.5676C17.9463 26.1545 17.9463 26.1545 17.5687 26.4509C16.7488 27.1171 15.5788 26.9276 14.9854 26.0459L14.7956 25.7671L14.2025 26.3162C12.4914 27.8821 10.3504 28.5838 8.76592 28.0976C6.74971 27.4866 5.63455 25.7576 5.65248 23.265C5.66092 20.763 6.76764 18.1262 8.63127 16.1733C9.68455 15.0747 10.6746 14.4264 11.6828 14.1835C12.4106 14.0035 12.8528 14.0126 13.5447 14.2285Z" fill="#00C4CC"/>
<path d="M31.7877 20.6284C31.5898 20.8259 31.6625 21.6184 31.9143 22.1225C32.0405 22.3834 32.1751 22.5908 32.2201 22.5908C32.256 22.5908 32.3368 22.3834 32.4001 22.1306C32.6251 21.1954 32.2201 20.1956 31.7877 20.6284Z" fill="#00C4CC"/>
</svg>
