<svg width="45" height="45" viewBox="0 0 45 45" fill="none" xmlns="http://www.w3.org/2000/svg">
<path d="M32.9797 32.3831C33.2557 30.0864 33.1731 29.7492 34.8838 30.1215L35.318 30.1595C36.6335 30.2193 38.3544 29.9479 39.3655 29.4782C41.5421 28.4681 42.8323 26.7824 40.6867 27.225C35.7915 28.2351 35.4551 26.5774 35.4551 26.5774C40.6241 18.9081 42.7848 9.17228 40.9194 6.78904C35.8323 0.289003 27.0267 3.36271 26.8794 3.44217L26.8323 3.45096C25.8652 3.25021 24.7827 3.13033 23.5667 3.11064C21.3515 3.07408 19.6706 3.69142 18.3955 4.65822C18.3955 4.65822 2.68666 -1.81369 3.41756 12.7972C3.57295 15.9054 7.87256 36.3161 13.0012 30.1511C14.8757 27.8969 16.6869 25.9907 16.6869 25.9907C17.5862 26.588 18.6634 26.8931 19.7926 26.7835L19.8802 26.7089C19.8528 26.9888 19.8647 27.2626 19.915 27.5868C18.5942 29.063 18.9823 29.3221 16.341 29.8656C13.6684 30.4161 15.2385 31.3967 16.2633 31.6529C17.5061 31.9637 20.3808 32.4039 22.3235 29.6849L22.2462 29.995C22.7644 30.4098 22.7296 32.9752 22.8027 34.8079C22.8762 36.6409 22.9989 38.3513 23.3726 39.3599C23.7463 40.3685 24.1872 42.9655 27.6585 42.2216C30.5596 41.6015 32.7776 40.7067 32.9797 32.3831Z" fill="black"/>
<path d="M26.5283 44.0354C24.993 44.0354 23.9931 43.4416 23.386 42.8682C22.4695 42.0033 22.1059 40.8892 21.8887 40.2237L21.7948 39.946C21.3575 38.7654 21.2091 37.0656 21.1212 34.8768C21.1079 34.5481 21.0987 34.2095 21.0885 33.8506C21.0811 33.588 21.072 33.2586 21.0586 32.914C20.5055 33.1778 19.9184 33.3633 19.3142 33.4653C18.2317 33.6502 17.0681 33.5904 15.8548 33.287C14.9988 33.0729 14.1093 32.6293 13.6024 31.9441C12.1247 33.2382 10.7153 33.0627 9.94751 32.8065C8.59294 32.3547 7.38075 31.0852 6.24134 28.9263C5.42958 27.3882 4.64454 25.3843 3.90766 22.9697C2.62446 18.765 1.80919 14.3364 1.73677 12.8823C1.50895 8.33137 2.73415 5.0766 5.37755 3.20946C9.54743 0.264064 15.8654 1.99621 18.1688 2.78266C19.7164 1.84996 21.5371 1.3961 23.5945 1.42879C24.6994 1.44672 25.7516 1.54375 26.729 1.71813C27.7485 1.3975 29.7623 0.937307 32.0675 0.966135C36.3147 1.01676 39.8342 2.67192 42.2449 5.75266C43.9654 7.95063 43.1146 12.5663 42.4547 15.1222C41.5259 18.7172 39.8985 22.5408 37.8995 25.8694C38.4424 25.8733 39.2288 25.8082 40.3468 25.5773C42.5525 25.122 43.1976 26.3047 43.3727 26.8341C44.074 28.9582 41.0253 30.5635 40.0743 31.005C38.8558 31.5707 36.8691 31.9152 35.2421 31.8407L35.1711 31.8361L34.7436 31.7985L34.7014 32.155L34.6606 32.5034C34.5513 36.7218 33.9487 39.3933 32.7087 41.1585C31.409 43.0091 29.6027 43.5277 28.0115 43.8687C27.4687 43.9847 26.9754 44.0354 26.5283 44.0354ZM23.2974 28.6823C24.2884 29.4754 24.3753 30.9678 24.453 33.7567C24.4628 34.1048 24.472 34.4342 24.4843 34.7418C24.5215 35.6734 24.6091 37.8549 24.9508 38.7767C24.999 38.9071 25.0422 39.0393 25.0879 39.1796C25.4686 40.3454 25.6595 40.93 27.3059 40.5781C28.6879 40.2817 29.3984 40.0159 29.9546 39.2242C30.7628 38.0732 31.2149 35.7578 31.2979 32.3424L32.9794 32.3832L31.3095 32.1828L31.3587 31.7658C31.5187 30.3912 31.634 29.3984 32.5526 28.7417C33.2899 28.215 34.1297 28.266 34.7988 28.3866C34.0636 27.8311 33.8604 27.1797 33.8063 26.9125L33.666 26.2217L34.0601 25.637C36.3302 22.2691 38.2019 18.1298 39.1961 14.2802C40.2177 10.3247 39.9063 8.22414 39.5948 7.82688C35.4713 2.55801 28.3209 4.73348 27.5741 4.98028L27.4479 5.04848L26.8151 5.16625L26.491 5.0991C25.5973 4.91348 24.6045 4.81082 23.5403 4.7936C21.8683 4.76547 20.5193 5.16063 19.4133 5.99981L18.6459 6.58164L17.7554 6.21496C15.8527 5.43696 10.2643 3.87285 7.31536 5.96149C5.67848 7.12094 4.93282 9.39274 5.09876 12.7139C5.1536 13.8105 5.89856 17.9614 7.12763 21.9871C8.82602 27.5506 10.3694 29.3988 11.0138 29.6136C11.1263 29.6515 11.4181 29.4248 11.7085 29.076C12.9193 27.6246 14.1731 26.2095 15.4681 24.8327L16.4419 23.8079L17.6193 24.5901C18.0939 24.9054 18.6174 25.0844 19.1549 25.1181L21.9629 22.7233L21.5561 26.8745C21.547 26.9677 21.5424 27.0946 21.579 27.3302L21.7013 28.117L21.1704 28.7104L21.1093 28.7793L22.6519 29.4912L23.2974 28.6823Z" fill="black"/>
<path d="M40.6866 27.225C35.7911 28.2351 35.4547 26.5774 35.4547 26.5774C40.6237 18.9078 42.7844 9.17159 40.9197 6.78905C35.8326 0.289363 27.0263 3.36307 26.8794 3.44288L26.8319 3.45132C25.8648 3.25057 24.7823 3.13104 23.5655 3.11136C21.3503 3.07514 19.6702 3.69214 18.3951 4.65893C18.3951 4.65893 2.68589 -1.81263 3.41644 12.798C3.57183 15.9065 7.87144 36.3171 13 30.1521C14.8746 27.8979 16.6855 25.9917 16.6855 25.9917C17.5851 26.589 18.6619 26.8942 19.7908 26.7845L19.8787 26.71C19.8513 26.9898 19.8639 27.2637 19.9139 27.5878C18.5927 29.064 18.9808 29.3232 16.3395 29.8667C13.6669 30.4172 15.237 31.3977 16.2622 31.654C17.5046 31.9648 20.3797 32.4049 22.3221 29.686L22.2444 29.996C22.7622 30.4109 23.1257 32.6932 23.0649 34.7622C23.0041 36.8311 22.963 38.2518 23.3711 39.3613C23.7789 40.4708 24.1853 42.9669 27.6574 42.223C30.5585 41.6015 32.0617 39.9903 32.2713 37.3029C32.4196 35.3922 32.7554 35.6748 32.7768 33.9666L33.0465 33.158C33.3573 30.568 33.0957 29.7327 34.8834 30.1212L35.3176 30.1592C36.6331 30.2189 38.3547 29.9475 39.3655 29.4778C41.5416 28.4685 42.8322 26.7824 40.6866 27.225Z" fill="#336791"/>
<path d="M26.7036 42.9986C23.8096 42.9986 22.8927 40.7068 22.5176 39.7695C21.9684 38.3959 21.85 33.0655 21.9723 28.6942C21.9741 28.6205 21.9905 28.5479 22.0205 28.4805C22.0505 28.4132 22.0936 28.3524 22.1472 28.3017C22.2008 28.2511 22.2638 28.2116 22.3328 28.1854C22.4017 28.1592 22.4752 28.147 22.5489 28.1493C22.6225 28.1513 22.695 28.1678 22.7623 28.1978C22.8295 28.2279 22.8902 28.2709 22.9408 28.3244C22.9914 28.3779 23.031 28.4409 23.0572 28.5097C23.0835 28.5786 23.0959 28.6519 23.0938 28.7255C22.9528 33.7673 23.1529 38.3362 23.5593 39.3529C24.1935 40.9381 25.1554 42.3246 27.8747 41.7421C30.4562 41.1884 31.423 40.2096 31.8537 37.7132C32.1841 35.7975 32.8377 30.3476 32.9182 29.2722C32.9236 29.1987 32.9434 29.127 32.9766 29.0612C33.0097 28.9954 33.0555 28.9367 33.1114 28.8887C33.1672 28.8406 33.232 28.804 33.302 28.781C33.372 28.758 33.4459 28.7491 33.5194 28.7547C33.6677 28.7659 33.8054 28.8355 33.9025 28.9482C33.9995 29.061 34.0478 29.2075 34.0369 29.3559C33.9529 30.4756 33.3025 35.915 32.9593 37.9041C32.451 40.8527 31.1365 42.19 28.1099 42.839C27.5956 42.949 27.1283 42.9982 26.7036 42.9986ZM11.0113 31.8045C10.7583 31.8037 10.5071 31.7621 10.2674 31.6814C8.38759 31.0543 6.59708 27.9929 4.94544 22.5812C3.68825 18.462 2.89161 14.1624 2.82165 12.7649C2.61458 8.62211 3.68122 5.69113 5.99274 4.0539C10.5655 0.813905 18.2581 3.89922 18.5833 4.03211C18.721 4.08838 18.8308 4.19707 18.8884 4.33427C18.946 4.47147 18.9468 4.62595 18.8905 4.76371C18.8342 4.90147 18.7256 5.01124 18.5884 5.06886C18.4512 5.12649 18.2967 5.12725 18.1589 5.07098C18.0847 5.04074 10.7083 2.08551 6.63892 4.97078C4.66243 6.37211 3.75505 8.97578 3.94173 12.709C4.00044 13.8864 4.7447 18.0827 6.01806 22.2536C7.49251 27.0848 9.17052 30.1332 10.6221 30.6173C10.8499 30.6932 11.5432 30.9242 12.5343 29.7324C13.69 28.3443 14.889 26.9929 16.1297 25.6803C16.2335 25.5767 16.3737 25.5179 16.5203 25.5165C16.6669 25.515 16.8083 25.571 16.9142 25.6724C17.02 25.7739 17.082 25.9127 17.0867 26.0593C17.0915 26.2058 17.0387 26.3484 16.9397 26.4565C16.9228 26.4741 15.2357 28.2379 13.397 30.4499C12.5262 31.4972 11.6916 31.8045 11.0113 31.8045ZM35.4199 27.0777C35.3182 27.0776 35.2185 27.0498 35.1313 26.9974C35.0442 26.9449 34.973 26.8698 34.9252 26.78C34.8775 26.6902 34.8551 26.5891 34.8603 26.4876C34.8656 26.386 34.8984 26.2878 34.9552 26.2034C40.1804 18.4497 42.0145 9.0809 40.4438 7.07348C38.4666 4.54715 35.6748 3.22773 32.1455 3.15144C29.5323 3.09519 27.4553 3.76246 27.1157 3.87883L27.0302 3.91363C26.6889 4.02086 26.427 3.83383 26.3282 3.61515C26.2718 3.48987 26.2633 3.3483 26.3042 3.21716C26.345 3.08601 26.4325 2.97435 26.55 2.90324C26.5662 2.89375 26.6175 2.87195 26.7008 2.84137C27.2777 2.63008 29.3864 1.99726 31.9982 2.02715C35.9033 2.06863 39.1293 3.57437 41.3265 6.3823C42.3661 7.71086 42.3686 10.7716 41.3332 14.7801C40.2778 18.867 38.2918 23.2591 35.885 26.8306C35.7775 26.9912 35.6003 27.0777 35.4199 27.0777ZM35.6871 30.6672C34.7949 30.6672 33.995 30.5413 33.5162 30.2545C33.024 29.9595 32.9302 29.5587 32.9179 29.346C32.7836 26.987 34.085 26.5764 34.7488 26.389C34.6563 26.2491 34.5249 26.0846 34.3888 25.9148C34.0017 25.431 33.4716 24.7687 33.0631 23.778C32.9991 23.6233 32.7987 23.2636 32.5666 22.847C31.3084 20.5907 28.6903 15.8956 30.3722 13.4912C31.1506 12.3786 32.7006 11.9405 34.9843 12.1848C34.3125 10.138 31.1133 3.73539 23.522 3.61094C21.239 3.57297 19.3665 4.27504 17.9596 5.6957C14.8096 8.87699 14.9235 14.6331 14.9252 14.6908C14.9272 14.7644 14.9146 14.8377 14.8882 14.9065C14.8618 14.9753 14.8221 15.0382 14.7714 15.0916C14.7207 15.145 14.66 15.188 14.5927 15.218C14.5254 15.2479 14.4529 15.2643 14.3793 15.2663C14.3056 15.2682 14.2323 15.2556 14.1636 15.2293C14.0948 15.2029 14.0319 15.1632 13.9784 15.1125C13.925 15.0618 13.8821 15.0011 13.8521 14.9338C13.8221 14.8665 13.8057 14.7939 13.8038 14.7203C13.7967 14.4647 13.6793 8.42418 17.1626 4.90609C18.7928 3.25973 20.9387 2.44691 23.5406 2.48945C28.3971 2.56926 31.5232 5.03828 33.2902 7.09527C35.2164 9.33719 36.1607 11.8101 36.2384 12.6355C36.2964 13.2494 35.8559 13.3721 35.7669 13.3904L35.5644 13.3949C33.3232 13.036 31.8853 13.2852 31.2908 14.1346C30.0115 15.9631 32.4882 20.4044 33.5457 22.3011C33.8157 22.7848 34.0105 23.1346 34.0998 23.3505C34.4472 24.1928 34.9003 24.7588 35.2642 25.2138C35.5845 25.6138 35.8618 25.9608 35.961 26.3679C36.007 26.4488 36.6606 27.4156 40.5387 26.6151C41.5107 26.4147 42.0936 26.5859 42.2719 27.1248C42.6224 28.1848 40.6557 29.4212 39.567 29.9268C38.5914 30.3803 37.0343 30.6672 35.6871 30.6672ZM34.0362 29.2536C34.1592 29.3777 34.7748 29.5918 36.0496 29.5369C37.183 29.4884 38.3783 29.242 39.0955 28.909C40.0127 28.4829 40.6252 28.0066 40.9423 27.6814L40.7665 27.7137C38.2869 28.2256 36.533 28.1574 35.5535 27.5109C35.4877 27.4675 35.4243 27.4204 35.3637 27.3699C35.2575 27.4117 35.1594 27.4391 35.0895 27.4588C34.534 27.6146 33.9595 27.7759 34.0362 29.2536ZM18.0183 32.3877C17.4024 32.3877 16.7541 32.3037 16.0921 32.1381C15.4062 31.9666 14.2499 31.4501 14.2675 30.6018C14.2875 29.6501 15.6716 29.3646 16.1926 29.2574C18.0749 28.8696 18.1976 28.7143 18.7858 27.9672C18.9573 27.7496 19.1707 27.4785 19.4618 27.1537C19.8939 26.6699 20.366 26.4249 20.8652 26.4249C21.2129 26.4249 21.4981 26.5427 21.6865 26.6211C22.287 26.87 22.7879 27.4718 22.994 28.1915C23.1799 28.8408 23.091 29.4659 22.7443 29.9514C21.6063 31.545 19.9719 32.3877 18.0183 32.3877ZM15.4793 30.65C15.6484 30.7807 15.9873 30.9555 16.3645 31.0497C16.9379 31.1931 17.4941 31.2659 18.0186 31.2659C19.6168 31.2659 20.9 30.6043 21.832 29.2993C22.0265 29.0271 21.9681 28.6816 21.9161 28.4998C21.8071 28.1191 21.5364 27.7728 21.2576 27.6571C21.1064 27.5945 20.9809 27.5467 20.8656 27.5467C20.8037 27.5467 20.6153 27.5467 20.2982 27.9014C20.0793 28.1475 19.869 28.401 19.6675 28.6615C18.9348 29.5918 18.5991 29.9075 16.4194 30.3564C15.8875 30.4654 15.6147 30.5765 15.4793 30.65ZM19.7926 28.0625C19.6587 28.0622 19.5293 28.0141 19.4277 27.9268C19.3262 27.8395 19.2592 27.7188 19.2389 27.5864C19.2248 27.4933 19.2155 27.3996 19.2108 27.3055C17.782 27.2788 16.4036 26.6657 15.357 25.5737C14.0337 24.1932 13.4315 22.2803 13.705 20.326C14.002 18.2036 13.8909 16.3301 13.8312 15.3236C13.8147 15.0437 13.8027 14.8416 13.8034 14.7017C13.8045 14.5241 13.808 14.0534 15.3816 13.2557C15.9413 12.972 17.0634 12.477 18.2893 12.3501C20.3203 12.1402 21.6591 13.0448 22.0599 14.8975C23.1416 19.8995 22.1456 22.1119 21.4183 23.7277C21.2829 24.0286 21.1549 24.3127 21.0526 24.588L20.9623 24.8305C20.578 25.861 20.2458 26.7511 20.3477 27.4159C20.3589 27.4887 20.3557 27.563 20.3381 27.6346C20.3206 27.7061 20.2892 27.7735 20.2456 27.8329C20.202 27.8923 20.1471 27.9425 20.0841 27.9807C20.0211 28.0189 19.9512 28.0443 19.8784 28.0554L19.7926 28.0625ZM14.9288 14.8571L14.9506 15.2575C15.0124 16.303 15.1277 18.2486 14.8156 20.4817C14.5902 22.0936 15.0824 23.6669 16.1666 24.7975C17.0234 25.6912 18.1508 26.1844 19.3096 26.1844H19.3335C19.4632 25.6377 19.6787 25.0605 19.9107 24.4386L20.0004 24.1974C20.1161 23.8866 20.2514 23.5857 20.3949 23.2671C21.0948 21.7118 21.9663 19.7758 20.9626 15.1348C20.764 14.2155 20.282 13.6836 19.4899 13.5081C17.8629 13.1488 15.4382 14.3726 14.9288 14.8571ZM18.3143 14.6191C18.2862 14.8173 18.6775 15.3468 19.1879 15.4175C19.6974 15.4888 20.1333 15.0747 20.1611 14.8764C20.1888 14.6781 19.7979 14.4595 19.2874 14.3884C18.777 14.3174 18.3414 14.4208 18.3143 14.6191ZM19.305 15.6126L19.1619 15.6027C18.8455 15.5588 18.5256 15.3595 18.3066 15.0691C18.2296 14.9671 18.1041 14.7695 18.129 14.593C18.1645 14.3343 18.4802 14.1793 18.9728 14.1793C19.0828 14.1793 19.1974 14.1873 19.3127 14.2035C19.582 14.2408 19.832 14.3185 20.0166 14.4215C20.3365 14.6001 20.36 14.7994 20.3456 14.9024C20.3063 15.1882 19.8517 15.6126 19.305 15.6126ZM18.5003 14.6521C18.5161 14.7745 18.8191 15.178 19.2136 15.2325L19.3054 15.2389C19.6696 15.2389 19.9417 14.9523 19.9737 14.8585C19.9399 14.7945 19.7058 14.6356 19.2618 14.5737C19.1661 14.5602 19.0697 14.5533 18.9731 14.553C18.6877 14.553 18.5361 14.6173 18.5003 14.6521ZM33.8302 14.2144C33.8579 14.4127 33.467 14.9421 32.9569 15.0132C32.4471 15.0842 32.0108 14.6704 31.9827 14.4721C31.956 14.2738 32.3469 14.0548 32.8567 13.9841C33.3665 13.9128 33.802 14.0165 33.8302 14.2144ZM32.8391 15.1144C32.3483 15.1144 31.9247 14.7326 31.8899 14.4848C31.8495 14.1873 32.3392 13.9613 32.8433 13.8913C32.9544 13.8759 33.0645 13.8681 33.1703 13.8681C33.6055 13.8681 33.8938 13.9957 33.9226 14.2018C33.9413 14.335 33.839 14.5407 33.6628 14.7263C33.5465 14.8483 33.3021 15.0596 32.9692 15.1056L32.8391 15.1144ZM33.1706 14.0552C33.0731 14.0552 32.9728 14.0623 32.8697 14.0766C32.3631 14.1473 32.0607 14.3505 32.0755 14.4595C32.0924 14.5793 32.4158 14.9277 32.8395 14.9277L32.9439 14.9203C33.2206 14.882 33.4283 14.7013 33.5275 14.5973C33.6832 14.4338 33.7451 14.2798 33.7377 14.2274C33.7279 14.1578 33.5408 14.0552 33.1706 14.0552ZM34.5646 25.6015C34.4629 25.6016 34.3632 25.574 34.2761 25.5217C34.1889 25.4695 34.1176 25.3945 34.0698 25.3048C34.0219 25.2151 33.9994 25.1141 34.0046 25.0126C34.0098 24.9111 34.0424 24.8129 34.0991 24.7286C35.2937 22.9444 35.075 21.1251 34.8638 19.3655C34.7734 18.616 34.6806 17.8408 34.7045 17.0969C34.7291 16.3315 34.8265 15.7001 34.9204 15.0895C35.0318 14.3659 35.1373 13.6825 35.0937 12.8711C35.0897 12.7975 35.1003 12.7239 35.1247 12.6545C35.1492 12.585 35.1871 12.521 35.2363 12.4662C35.2855 12.4114 35.345 12.3668 35.4115 12.335C35.4779 12.3032 35.5499 12.2848 35.6235 12.2808C35.697 12.2768 35.7706 12.2874 35.8401 12.3119C35.9096 12.3364 35.9735 12.3743 36.0283 12.4235C36.139 12.5228 36.2057 12.6621 36.2138 12.8106C36.2637 13.738 36.1445 14.5115 36.0292 15.26C35.9402 15.8376 35.8481 16.4349 35.826 17.1327C35.8045 17.7916 35.8886 18.4912 35.9775 19.2316C36.2025 21.1026 36.4574 23.2232 35.0315 25.3526C34.98 25.4292 34.9105 25.492 34.8291 25.5354C34.7477 25.5788 34.6568 25.6015 34.5646 25.6015Z" fill="white"/>
</svg>
