<svg width="45" height="45" viewBox="0 0 45 45" fill="none" xmlns="http://www.w3.org/2000/svg">
<path d="M43.8528 20.5235L24.4761 1.14744C23.3609 0.0315821 21.5511 0.0315821 20.4342 1.14744L16.4109 5.17143L21.5149 10.2754C22.7014 9.87498 24.0612 10.1436 25.0066 11.0889C25.9569 12.0403 26.2233 13.4117 25.8131 14.6021L30.7321 19.5215C31.9222 19.1112 33.2957 19.3763 34.2456 20.3283C35.5746 21.6562 35.5746 23.8088 34.2456 25.1374C33.9298 25.4533 33.5549 25.704 33.1422 25.875C32.7295 26.046 32.2872 26.134 31.8404 26.134C31.3937 26.134 30.9514 26.046 30.5387 25.875C30.126 25.704 29.751 25.4533 29.4352 25.1374C28.9609 24.6625 28.6375 24.058 28.5058 23.3999C28.3742 22.7417 28.44 22.0594 28.6952 21.4386L24.108 16.8514L24.1073 28.9244C24.4401 29.0883 24.744 29.3053 25.0069 29.5671C26.3351 30.8949 26.3351 33.0468 25.0069 34.3775C23.6784 35.7053 21.5251 35.7053 20.1979 34.3775C18.8697 33.0472 18.8697 30.8953 20.1979 29.5671C20.5164 29.2487 20.8948 28.9966 21.3113 28.8253V16.6404C20.8944 16.4699 20.5158 16.2175 20.1979 15.8983C19.1917 14.8928 18.9495 13.4163 19.4656 12.1802L14.4337 7.14826L1.14744 20.4338C0.611422 20.97 0.310303 21.6971 0.310303 22.4553C0.310303 23.2135 0.611422 23.9406 1.14744 24.4768L20.5245 43.8528C21.6404 44.9687 23.4495 44.9687 24.5671 43.8528L43.8531 24.5668C44.3891 24.0304 44.6901 23.3032 44.69 22.545C44.6899 21.7868 44.3888 21.0597 43.8528 20.5235Z" fill="#F34F29"/>
</svg>
