<svg width="53" height="30" viewBox="0 0 53 30" fill="none" xmlns="http://www.w3.org/2000/svg">
<path d="M41.4062 16.6667H11.5938C10.6662 16.6667 9.9375 15.9334 9.9375 15C9.9375 14.0667 10.6662 13.3334 11.5938 13.3334H41.4062C42.3338 13.3334 43.0625 14.0667 43.0625 15C43.0625 15.9334 42.3338 16.6667 41.4062 16.6667Z" fill="black"/>
<path d="M19.875 28.3333C19.6578 28.336 19.4424 28.2929 19.2427 28.2067C19.0431 28.1206 18.8635 27.9934 18.7156 27.8333L7.12188 16.1666C6.45938 15.5 6.45938 14.4666 7.12188 13.8L18.7156 2.16663C19.3781 1.49996 20.405 1.49996 21.0675 2.16663C21.73 2.83329 21.73 3.86663 21.0675 4.53329L10.6331 15.0333L21.0675 25.5333C21.73 26.2 21.73 27.2333 21.0675 27.9C20.7363 28.2333 20.3056 28.4 19.9081 28.4L19.875 28.3333Z" fill="black"/>
</svg>
