<svg width="53" height="30" viewBox="0 0 53 30" fill="none" xmlns="http://www.w3.org/2000/svg">
<path d="M41.4062 16.6667H11.5938C10.6662 16.6667 9.9375 15.9334 9.9375 15C9.9375 14.0667 10.6662 13.3334 11.5938 13.3334H41.4062C42.3338 13.3334 43.0625 14.0667 43.0625 15C43.0625 15.9334 42.3338 16.6667 41.4062 16.6667Z" fill="black"/>
<path d="M33.125 28.3333C32.9078 28.336 32.6924 28.2929 32.4927 28.2068C32.2931 28.1206 32.1135 27.9934 31.9656 27.8333C31.3031 27.1666 31.3031 26.1333 31.9656 25.4666L42.4 14.9666L31.9656 4.46664C31.3031 3.79998 31.3031 2.76664 31.9656 2.09998C32.6281 1.43331 33.655 1.43331 34.3175 2.09998L45.9113 13.7666C46.5738 14.4333 46.5738 15.4666 45.9113 16.1333L34.3175 27.8C33.9862 28.1333 33.5556 28.3 33.1581 28.3L33.125 28.3333Z" fill="black"/>
</svg>
