<svg width="40" height="45" viewBox="0 0 40 45" fill="none" xmlns="http://www.w3.org/2000/svg">
<g clip-path="url(#clip0_49_301)">
<path d="M20 44.9166C19.3789 44.9166 18.7992 44.7515 18.2609 44.4627L12.7536 41.2028C11.9255 40.7489 12.3395 40.5838 12.588 40.5013C13.7059 40.1299 13.913 40.0474 15.0723 39.387C15.1967 39.3045 15.3623 39.3458 15.4864 39.4283L19.7102 41.9455C19.8758 42.028 20.0828 42.028 20.207 41.9455L36.7289 32.4134C36.8945 32.3309 36.9773 32.1659 36.9773 31.9595V12.9364C36.9773 12.7301 36.8945 12.565 36.7289 12.4825L20.207 2.99153C20.0414 2.90901 19.8344 2.90901 19.7102 2.99153L3.18828 12.4826C3.02266 12.5652 2.93984 12.7715 2.93984 12.9365V31.9595C2.93984 32.1246 3.02266 32.3309 3.18828 32.4134L7.70187 35.013C10.145 36.2509 11.6769 34.8067 11.6769 33.3625V14.5869C11.6769 14.3393 11.8841 14.0917 12.1739 14.0917H14.2858C14.5342 14.0917 14.7827 14.2981 14.7827 14.5869V33.3623C14.7827 36.6223 13.002 38.5204 9.89641 38.5204C8.94406 38.5204 8.19875 38.5204 6.08703 37.4888L1.73906 35.013C0.6625 34.3939 0 33.2385 0 32.0006V12.9778C0 11.7399 0.6625 10.5845 1.73906 9.96544L18.2609 0.433383C19.2961 -0.144298 20.7039 -0.144298 21.7391 0.433383L38.2609 9.96544C39.3375 10.5844 40 11.7397 40 12.9778V32.0008C40 33.2387 39.3375 34.3941 38.2609 35.013L21.7391 44.5454C21.2008 44.793 20.5797 44.9167 20 44.9167M25.0931 31.8358C17.8467 31.8358 16.3561 28.5347 16.3561 25.7287C16.3561 25.4811 16.5631 25.2335 16.853 25.2335H19.0061C19.2545 25.2335 19.4617 25.3986 19.4617 25.6462C19.793 27.8331 20.7453 28.9061 25.1345 28.9061C28.6128 28.9061 30.1036 28.1221 30.1036 26.2653C30.1036 25.1923 29.6895 24.4083 24.265 23.8717C19.7516 23.4178 16.9358 22.4275 16.9358 18.8376C16.9358 15.495 19.7514 13.5144 24.472 13.5144C29.7722 13.5144 32.3809 15.3299 32.7122 19.2913C32.7122 19.4152 32.6708 19.539 32.588 19.6627C32.5052 19.7452 32.3809 19.8278 32.2567 19.8278H30.1036C29.8964 19.8278 29.6895 19.6627 29.648 19.4564C29.1511 17.1869 27.8675 16.4442 24.472 16.4442C20.6627 16.4442 20.207 17.7646 20.207 18.7549C20.207 19.9517 20.7453 20.3229 25.8798 20.9831C30.9731 21.6433 33.3747 22.5925 33.3747 26.1413C33.3333 29.7726 30.352 31.8358 25.0931 31.8358Z" fill="#539E43"/>
</g>
<defs>
<clipPath id="clip0_49_301">
<rect width="40" height="45" fill="white"/>
</clipPath>
</defs>
</svg>
