<svg width="45" height="45" viewBox="0 0 45 45" fill="none" xmlns="http://www.w3.org/2000/svg">
<path d="M16.875 5.625H22.5V16.875H16.875C15.3832 16.875 13.9524 16.2824 12.8975 15.2275C11.8426 14.1726 11.25 12.7418 11.25 11.25C11.25 9.75816 11.8426 8.32742 12.8975 7.27252C13.9524 6.21763 15.3832 5.625 16.875 5.625Z" fill="#F4511E"/>
<path d="M28.125 16.875H22.5V5.625H28.125C29.6168 5.625 31.0476 6.21763 32.1025 7.27252C33.1574 8.32742 33.75 9.75816 33.75 11.25C33.75 12.7418 33.1574 14.1726 32.1025 15.2275C31.0476 16.2824 29.6168 16.875 28.125 16.875Z" fill="#FF8A65"/>
<path d="M22.5 22.5C22.5 25.6066 25.0184 28.125 28.125 28.125C31.2316 28.125 33.75 25.6066 33.75 22.5C33.75 19.3934 31.2316 16.875 28.125 16.875C25.0184 16.875 22.5 19.3934 22.5 22.5Z" fill="#29B6F6"/>
<path d="M16.875 16.875H22.5V28.125H16.875C15.3832 28.125 13.9524 27.5324 12.8975 26.4775C11.8426 25.4226 11.25 23.9918 11.25 22.5C11.25 21.0082 11.8426 19.5774 12.8975 18.5225C13.9524 17.4676 15.3832 16.875 16.875 16.875Z" fill="#7C4DFF"/>
<path d="M16.875 28.125H22.5V33.75C22.5 35.2418 21.9074 36.6726 20.8525 37.7275C19.7976 38.7824 18.3668 39.375 16.875 39.375C15.3832 39.375 13.9524 38.7824 12.8975 37.7275C11.8426 36.6726 11.25 35.2418 11.25 33.75C11.25 32.2582 11.8426 30.8274 12.8975 29.7725C13.9524 28.7176 15.3832 28.125 16.875 28.125Z" fill="#00E676"/>
</svg>
