<svg width="55" height="55" viewBox="0 0 55 55" fill="none" xmlns="http://www.w3.org/2000/svg">
<path d="M42.1094 0H12.8906C5.77133 0 0 5.77133 0 12.8906V42.1094C0 49.2287 5.77133 55 12.8906 55H42.1094C49.2287 55 55 49.2287 55 42.1094V12.8906C55 5.77133 49.2287 0 42.1094 0Z" fill="#242938" fill-opacity="0.1"/>
<mask id="mask0_49_308" style="mask-type:luminance" maskUnits="userSpaceOnUse" x="8" y="8" width="39" height="39">
<path d="M8.16406 8.16406H46.8359V46.8359H8.16406V8.16406Z" fill="white"/>
</mask>
<g mask="url(#mask0_49_308)">
<path fill-rule="evenodd" clip-rule="evenodd" d="M43.7854 38.2873C41.6821 38.2288 40.0504 38.4443 38.6829 39.0197C38.2891 39.1778 37.6572 39.1778 37.6052 39.6734C37.8158 39.8814 37.8411 40.2217 38.0257 40.51C38.3409 41.0332 38.8939 41.7379 39.3932 42.1035L41.0762 43.3062C42.1019 43.9329 43.2591 44.2992 44.2583 44.9266C44.8371 45.2927 45.4154 45.7632 45.9942 46.1557C46.289 46.3647 46.4675 46.7053 46.836 46.8352V46.7562C46.6521 46.5218 46.599 46.1821 46.4158 45.9196L45.6258 45.162C44.8637 44.1428 43.9163 43.2534 42.8906 42.5223C42.0488 41.9471 40.2085 41.1632 39.8665 40.1966L39.8147 40.1379C40.3924 40.0795 41.0762 39.876 41.629 39.7192C42.5239 39.4848 43.3385 39.5364 44.2583 39.3013L45.5216 38.9352V38.7008C45.0481 38.2305 44.7062 37.603 44.2069 37.1591C42.8659 36.009 41.3921 34.8848 39.8665 33.944C39.0513 33.4215 37.999 33.0809 37.1313 32.6375C36.8148 32.4805 36.2895 32.402 36.1056 32.1408C35.631 31.5667 35.3687 30.8079 35.0269 30.1279L32.8705 25.5801C32.3972 24.5607 32.1072 23.5412 31.5294 22.6004C28.8201 18.1568 25.8739 15.465 21.3501 12.8246C20.3775 12.2757 19.2204 12.0396 17.99 11.7525L16.0177 11.6473C15.5962 11.4644 15.1758 10.9675 14.8075 10.732C13.3083 9.79102 9.442 7.75258 8.33641 10.4392C7.62636 12.138 9.38894 13.8105 9.98727 14.6736C10.4352 15.2747 11.0129 15.954 11.3294 16.6338C11.5062 17.0779 11.5653 17.5488 11.7499 18.0193C12.1701 19.1692 12.565 20.4505 13.1173 21.5226C13.4121 22.0715 13.7217 22.6473 14.0899 23.1436C14.3005 23.4364 14.6689 23.5619 14.7474 24.0322C14.3789 24.5553 14.3535 25.3386 14.143 25.993C13.1958 28.9467 13.5642 32.6059 14.9053 34.7806C15.3268 35.4337 16.32 36.8719 17.6677 36.3225C18.8513 35.852 18.5873 34.3623 18.9291 33.0552C19.0086 32.7419 18.9557 32.5327 19.113 32.323V32.3816L20.1917 34.5509C21.007 35.8316 22.4278 37.1649 23.6107 38.0541C24.2415 38.5247 24.7415 39.3355 25.5301 39.6225V39.5434H25.4784C25.3202 39.3091 25.0833 39.2036 24.8729 39.0207C24.3996 38.5504 23.8737 37.9751 23.5052 37.4526C22.4012 35.9891 21.4286 34.3681 20.5602 32.6955C20.1389 31.8853 19.7704 30.9965 19.4297 30.1864C19.2705 29.8725 19.2705 29.4013 19.0081 29.2456C18.613 29.8196 18.0355 30.3176 17.7449 31.023C17.2449 32.1466 17.1931 33.5321 17.0092 34.9698C16.9031 34.9961 16.9501 34.9698 16.9031 35.0283C16.0624 34.8199 15.7724 33.9562 15.4572 33.2251C14.6683 31.3693 14.5362 28.3896 15.22 26.2461C15.4039 25.6972 16.1939 23.972 15.8785 23.4493C15.7195 22.9526 15.1947 22.6655 14.9046 22.273C14.5628 21.7763 14.1956 21.1494 13.9587 20.6005C13.3279 19.1359 13.0125 17.5159 12.328 16.0522C12.0115 15.3724 11.4598 14.6665 11.0123 14.0398C10.5124 13.3338 9.96128 12.8369 9.5664 12.0009C9.43491 11.7081 9.251 11.2429 9.46134 10.9288C9.51333 10.7198 9.61925 10.636 9.82872 10.5892C10.1703 10.2961 11.1444 10.6676 11.4862 10.8233C12.4588 11.2159 13.2742 11.5815 14.0895 12.1298C14.458 12.3911 14.8528 12.888 15.3261 13.0193H15.8792C16.7209 13.2019 17.6671 13.0777 18.4551 13.3121C19.8495 13.7573 21.1115 14.4099 22.2433 15.1164C25.6883 17.2858 28.5296 20.3701 30.4488 24.0562C30.7642 24.6573 30.8957 25.2063 31.1857 25.8336C31.7387 27.1149 32.4226 28.4214 32.9736 29.6767C33.5266 30.9052 34.0524 32.1608 34.8413 33.18C35.2361 33.7289 36.8135 34.0159 37.5234 34.3036C38.0497 34.538 38.8644 34.749 39.339 35.036C40.2325 35.5849 41.1269 36.2123 41.9681 36.8134C42.3883 37.1262 43.7042 37.78 43.7824 38.3014L43.7854 38.2873ZM16.9637 15.5733C16.6004 15.5702 16.2382 15.6141 15.8862 15.7039V15.7626H15.938C16.1486 16.1809 16.517 16.4686 16.7798 16.8347L17.3852 18.0894L17.4372 18.0309C17.8054 17.7697 17.99 17.3514 17.99 16.7247C17.8321 16.5418 17.8061 16.3584 17.6746 16.1755C17.5167 15.9143 17.1749 15.783 16.9637 15.5746V15.5733Z" fill="#00618A"/>
</g>
</svg>
